# xmcd
#
# Track frame offsets:
#	150
#	9023
#	18489
#	28104
#	37484
#
# Disc length: 624 seconds
#
# Revision: 0
# Processed by: cddbd v1.5.2PL0 Copyright (c) Steve Scherf et al.
# Submitted via: audiograbber 1.83.01
#
DISCID=35026e05
DTITLE=Larry Spencer - Bible Point Of View
DYEAR=1900
DGENRE=Gospel
TTITLE0=Point 1223
TTITLE1=Point 1224
TTITLE2=Point  1225
TTITLE3=Point 1226
TTITLE4=Point 1227
EXTD=
EXTT0=
EXTT1=
EXTT2=
EXTT3=
EXTT4=
PLAYORDER=
